<svg id="Layer_1" data-name="Layer 1" xmlns="http://www.w3.org/2000/svg" viewBox="0 0 566.93 175.75"><defs><style>.cls-1{fill:#eec815;}</style></defs><path class="cls-1" d="M206.91,122.64a9,9,0,0,1-1.48,4.94,8,8,0,0,1-4.47,3.27c-.48.08-1.29.24-2.44.48s-2.52.47-4.11.71l-5.12.78c-1.82.28-3.65.53-5.47.77q-2.5.36-7.62,1.19c-3.42.56-7.34,1.21-11.79,2s-9.27,1.54-14.46,2.38-10.42,1.7-15.66,2.62-10.38,1.78-15.42,2.62l-13.63,2.26q-6.08,1-10.36,1.66c-2.85.44-4.72.74-5.59.9q-13,1.91-26.85,3.15T35,154.19a26.47,26.47,0,0,0-2.56,1.66c-1,.72-2,1.51-3.15,2.38a44.92,44.92,0,0,1-8.52,5.24,22.67,22.67,0,0,1-9.7,2,6.78,6.78,0,0,1-4.4-1.67,17.68,17.68,0,0,1-3.52-3.93,21.41,21.41,0,0,1-2.32-4.64A12.45,12.45,0,0,1,0,151.45a9,9,0,0,1,1.9-5,41.63,41.63,0,0,1,5-5.78q3.11-3,7.15-6.37t8.39-6.72q4.35-3.39,8.69-6.85t8-6.66c1.82-1.59,3.65-3.1,5.47-4.53s3.65-2.87,5.48-4.34,3.67-3,5.54-4.71S59.45,97,61.43,95l5.06-5.36,7-7.44q3.86-4.11,8-8.63t8-8.69q3.87-4.17,7-7.68l5.06-5.66q1.42-1.66,4.82-5.29t7.44-7.62q4.05-4,7.92-7.62a73.45,73.45,0,0,1,6.13-5.3,25.85,25.85,0,0,0-3.27.53,25.5,25.5,0,0,1-2.8.54l-6.55,1.13c-2.93.52-6.29,1.09-10.06,1.73S97.34,31,93,31.68s-8.67,1.37-12.92,2-8.31,1.07-12.2,1.42-7.26.54-10.12.54a157.48,157.48,0,0,1-21.07-1.37A85.79,85.79,0,0,1,18,29.66a38.38,38.38,0,0,1-4.47-1.91,12,12,0,0,1-3-2.14,7,7,0,0,1-1.73-2.8,12.21,12.21,0,0,1-.54-3.87,17,17,0,0,1,.3-2.68q.3-1.73.72-3.63a33.33,33.33,0,0,1,1-3.69,10.06,10.06,0,0,1,1.19-2.62,11.69,11.69,0,0,1,3.39-3A9.84,9.84,0,0,1,20.24,1.8a14.12,14.12,0,0,1,3.57.59q9,3,17,4.83A65.68,65.68,0,0,0,55.6,9.06q.94,0,3.81-.12t6.66-.35q3.81-.24,8.16-.48c2.9-.16,5.61-.3,8.15-.42s4.81-.24,6.79-.36,3.33-.17,4-.17Q98.58,6.92,106.91,6t17-1.91q8.7-1,16.2-1.84a110.47,110.47,0,0,1,11.19-.84,16.47,16.47,0,0,1,5.83,1.13,21,21,0,0,1,5.36,3,17,17,0,0,1,3.93,4.29A9.48,9.48,0,0,1,168,15a6,6,0,0,1-1.13,3.28,25.06,25.06,0,0,1-2.74,3.45q-1.61,1.73-3.21,3.21c-1.07,1-2,1.81-2.68,2.45Q144.64,41,131.08,55.67T105.6,84.42Q99.89,91.1,94.17,97T82.8,108.59q-5.65,5.59-11.13,10.89T61,130q6.67-.6,14-1.85t15.12-2.79q7.8-1.55,15.84-3.22t16-3.09q20.72-3.81,39.7-5.9a338.68,338.68,0,0,1,37-2.08,5.21,5.21,0,0,1,3,1.07,11.81,11.81,0,0,1,2.67,2.74,14.66,14.66,0,0,1,1.91,3.69A12,12,0,0,1,206.91,122.64Z"/><path class="cls-1" d="M358.23,78.23a10.34,10.34,0,0,1-.71,3A27,27,0,0,1,355.13,86,174.63,174.63,0,0,1,343.53,102q-7,8.7-15.36,17.32a241.44,241.44,0,0,1-18,16.67,178.71,178.71,0,0,1-19.4,14.23,112.25,112.25,0,0,1-19.59,9.94A51.82,51.82,0,0,1,252.63,164a55.8,55.8,0,0,1-19.52-3.1,35.25,35.25,0,0,1-13.81-9,37.85,37.85,0,0,1-8.22-14.41,62.92,62.92,0,0,1-2.74-19.35,129.46,129.46,0,0,1,1.25-17.38,94.47,94.47,0,0,1,4.59-18.63,108.26,108.26,0,0,1,9-19,95.45,95.45,0,0,1,14.47-18.51,49,49,0,0,1,14.64-10.48,36.28,36.28,0,0,1,15-3.57,13.48,13.48,0,0,1,3.34.54,23.92,23.92,0,0,1,4.05,1.48,28.22,28.22,0,0,1,3.92,2.27,13.62,13.62,0,0,1,3.1,2.85,44.06,44.06,0,0,1,5.71,9.23,24.23,24.23,0,0,1,1.91,9.82,47.46,47.46,0,0,1-2.38,15.48,54.16,54.16,0,0,1-6.49,12.92,81.3,81.3,0,0,1-9.7,11.6q-5.61,5.61-12,11.67a113.37,113.37,0,0,1-9.76,8q-5.83,4.35-12.5,9.46a28.67,28.67,0,0,0,2.38,6.37,14.69,14.69,0,0,0,3.57,4.47,14.22,14.22,0,0,0,5.18,2.67,25.45,25.45,0,0,0,7.2.9,41.92,41.92,0,0,0,12-1.91,95.6,95.6,0,0,0,12.8-4.88,66.81,66.81,0,0,0,11.07-6.61q5.47-4,11.07-8.27,3.45-2.62,8.87-7.56t11-10.3q3.81-3.57,7.62-7t8.1-7.56L343.59,80q6.9-5.59,11.19-5.6c1.5,0,2.46.44,2.85,1.31A6,6,0,0,1,358.23,78.23ZM265.84,65.37q0-5.23-1.6-7.38a4.54,4.54,0,0,0-3.63-2.14q-1.78,0-4.17,2.14a34.32,34.32,0,0,0-4.94,5.78,78.35,78.35,0,0,0-5.12,8.45Q243.82,77,241.62,82.4a86.75,86.75,0,0,0-3.69,11,76.45,76.45,0,0,0-2.09,10.89l6.25-5.18a59,59,0,0,0,5.3-4.94c1.67-1.66,3.55-3.71,5.66-6.13s4.1-4.94,6-7.56a56.9,56.9,0,0,0,4.82-7.85A16.38,16.38,0,0,0,265.84,65.37Z"/><path class="cls-1" d="M456.45,72.64a11.63,11.63,0,0,1-.48,2.85,16.64,16.64,0,0,1-1.43,3.57,10.88,10.88,0,0,1-2.44,3.1,5.83,5.83,0,0,1-3.63,1.43l-2-.06c-1,0-2.15-.1-3.34-.18s-2.3-.14-3.33-.18-1.78-.06-2.26-.06A54,54,0,0,0,403.11,97.4a78.11,78.11,0,0,0-6.84,7,111.93,111.93,0,0,0-6.91,8.87q-3.39,4.83-6.49,10.3A108,108,0,0,0,377.28,135q-2,4.88-3.93,10.06A105.15,105.15,0,0,0,370,156c-.56,2.07-1,3.87-1.25,5.42a48.9,48.9,0,0,1-1.37,5.42,7.6,7.6,0,0,1-2,3.27,12.23,12.23,0,0,1-3.33,2.26,19.58,19.58,0,0,1-4,1.37,24.86,24.86,0,0,1-4.11.6q-7.62,0-10.47-6.91t-2.86-20.59c0-2.07,0-4,.06-5.84s.12-3.67.24-5.53.25-3.81.41-5.84.36-4.3.6-6.84q.48-5.6,1.31-13.28T345,93.89Q346,86,347.1,78.59t2.32-12.5a20.61,20.61,0,0,1,4.82-9.88q3.39-3.57,9.94-3.58a8.36,8.36,0,0,1,3.87,1,15.38,15.38,0,0,1,3.51,2.44,15.8,15.8,0,0,1,2.62,3.09,6.81,6.81,0,0,1,1.19,3l.12,2.14a62.61,62.61,0,0,1-.59,7.86q-.6,4.53-1.61,9.58T371.15,92q-1.14,5.17-2.27,9.88t-2,8.69c-.59,2.66-1.05,4.87-1.37,6.61q4.17-8.8,8.93-17a131.51,131.51,0,0,1,10.24-15.12,89.66,89.66,0,0,1,11.79-12.44A56.65,56.65,0,0,1,410,63.83a75,75,0,0,1,10.47-4,31.56,31.56,0,0,1,8.58-1.37,48.53,48.53,0,0,1,9.34,1,39,39,0,0,1,8.81,2.8,22.88,22.88,0,0,1,6.61,4.46A8.24,8.24,0,0,1,456.45,72.64Z"/><path class="cls-1" d="M566.93,89.78a61.62,61.62,0,0,1-.36,7,38.41,38.41,0,0,1-1.19,6.13,58.11,58.11,0,0,1-2,6q-1.2,3-2.86,6.55a47.73,47.73,0,0,1-6.43,9.82,104.78,104.78,0,0,1-10.36,10.89,152,152,0,0,1-13,10.66A123.71,123.71,0,0,1,516,156,92.86,92.86,0,0,1,501,162.46a46.07,46.07,0,0,1-14.28,2.44A38,38,0,0,1,471.33,162a32.86,32.86,0,0,1-10.95-7.5A29.91,29.91,0,0,1,453.83,144a35.6,35.6,0,0,1-2.14-12.15,52.2,52.2,0,0,1,2-13.27A120.17,120.17,0,0,1,459,103.29a154.73,154.73,0,0,1,7-14.64,82.9,82.9,0,0,1,7.38-11.49A69.19,69.19,0,0,1,483.47,66.8a76.47,76.47,0,0,1,13.22-8.87,80,80,0,0,1,15.54-6.25,61.65,61.65,0,0,1,17.08-2.38,31.07,31.07,0,0,1,13.81,3.33A42.8,42.8,0,0,1,555.2,61.5a44.22,44.22,0,0,1,8.52,12.86A38,38,0,0,1,566.93,89.78ZM541.45,92.4q0-10.12-5.53-16t-16-5.84a15.26,15.26,0,0,0-7.26,2.08,40.77,40.77,0,0,0-7.38,5.24,79.15,79.15,0,0,0-6.73,6.73c-2.1,2.38-3.87,4.52-5.29,6.43a73.84,73.84,0,0,0-4.77,7.8,111.73,111.73,0,0,0-4.88,10.24A95.24,95.24,0,0,0,479.78,120a36.42,36.42,0,0,0-1.55,9.76,12.48,12.48,0,0,0,.78,4.29,13.52,13.52,0,0,0,2.14,3.87,12,12,0,0,0,3.22,2.85,7.64,7.64,0,0,0,4.1,1.13A26.36,26.36,0,0,0,497,140a74.62,74.62,0,0,0,11.14-5.24,92.7,92.7,0,0,0,11.78-8,78.94,78.94,0,0,0,10.72-10.17,53.56,53.56,0,0,0,7.8-11.67A28.54,28.54,0,0,0,541.45,92.4Z"/></svg>